<svg xmlns="http://www.w3.org/2000/svg" width="21" height="20" viewBox="0 0 21 20"><g><g><path fill="#231e1e" d="M5.162 3.825A7.2 7.2 0 0 1 7.65 2.45c-.3.55-.562 1.12-.787 1.712A14.656 14.656 0 0 0 6.3 6H3.35a8.277 8.277 0 0 1 1.812-2.175zm3.963.1c.317-.65.692-1.275 1.125-1.875.433.6.808 1.225 1.125 1.875.317.65.575 1.342.775 2.075h-3.8c.2-.733.458-1.425.775-2.075zm4.513.238a13.89 13.89 0 0 0-.788-1.713c.934.3 1.763.758 2.488 1.375A8.302 8.302 0 0 1 17.15 6H14.2a14.56 14.56 0 0 0-.562-1.837zm1.074 6.849c.025-.325.038-.662.038-1.012a12.728 12.728 0 0 0-.15-2H18c.083.334.145.663.187.988.042.325.063.662.063 1.012s-.02.687-.062 1.012A8.634 8.634 0 0 1 18 12h-3.4c.05-.334.087-.663.112-.988zm-6.924 0A13.018 13.018 0 0 1 7.75 10a12.728 12.728 0 0 1 .15-2h4.7a13.033 13.033 0 0 1 .15 2 12.728 12.728 0 0 1-.15 2H7.9c-.05-.334-.087-.663-.112-.988zm-5.475 0A7.886 7.886 0 0 1 2.25 10c0-.35.02-.687.062-1.012.042-.325.105-.655.188-.988h3.4a13.018 13.018 0 0 0-.15 2 12.728 12.728 0 0 0 .15 2H2.5a8.822 8.822 0 0 1-.187-.988zm11.325 4.826A14.76 14.76 0 0 0 14.2 14h2.95a8.28 8.28 0 0 1-1.812 2.175 7.2 7.2 0 0 1-2.488 1.375c.3-.55.563-1.12.788-1.712zm-8.475.337A8.295 8.295 0 0 1 3.35 14H6.3c.15.633.337 1.245.562 1.837.225.592.488 1.163.788 1.713a7.202 7.202 0 0 1-2.487-1.375zm3.962-.1A11.835 11.835 0 0 1 8.35 14h3.8c-.2.733-.458 1.425-.775 2.075-.317.65-.692 1.275-1.125 1.875-.433-.6-.808-1.225-1.125-1.875zm5.012 3.138a10.186 10.186 0 0 0 3.175-2.15 10.16 10.16 0 0 0 2.15-3.188A9.671 9.671 0 0 0 20.25 10a9.667 9.667 0 0 0-.788-3.887 10.164 10.164 0 0 0-2.15-3.175 10.174 10.174 0 0 0-3.174-2.15A9.647 9.647 0 0 0 10.25 0C8.882 0 7.59.263 6.374.788a10.129 10.129 0 0 0-3.186 2.15 10.174 10.174 0 0 0-2.15 3.174A9.647 9.647 0 0 0 .25 10c0 1.367.262 2.658.787 3.875a10.148 10.148 0 0 0 2.15 3.187 10.16 10.16 0 0 0 3.188 2.15A9.671 9.671 0 0 0 10.25 20a9.633 9.633 0 0 0 3.887-.787z"/></g></g></svg>