<svg xmlns="http://www.w3.org/2000/svg" width="16" height="22" viewBox="0 0 16 22"><g><g><path fill="#fff" d="M8 22.231c-2.683-2.484-4.687-4.792-6.012-6.922C.663 13.179 0 11.206 0 9.393c0-2.72.804-4.887 2.412-6.5C4.021 1.277 5.883.47 8 .47s3.98.807 5.588 2.421C15.196 4.506 16 6.672 16 9.392c0 1.814-.663 3.786-1.988 5.917-1.325 2.13-3.329 4.438-6.012 6.922zm0-2.149c2.217-2.194 3.854-4.184 4.913-5.97 1.058-1.786 1.587-3.36 1.587-4.72 0-2.135-.627-3.884-1.882-5.246C11.363 2.784 9.824 2.103 8 2.103c-1.824 0-3.363.681-4.618 2.043C2.127 5.508 1.5 7.257 1.5 9.393c0 1.36.542 2.933 1.625 4.719 1.083 1.786 2.708 3.776 4.875 5.97zm.002-9.003c-.482 0-.894-.186-1.237-.557a1.91 1.91 0 0 1-.515-1.344c0-.525.17-.973.512-1.347.342-.373.754-.56 1.236-.56s.894.186 1.237.558c.343.372.515.82.515 1.344 0 .524-.17.973-.512 1.346-.342.374-.754.56-1.236.56z"/></g></g></svg>