<svg xmlns="http://www.w3.org/2000/svg" width="48" height="48" viewBox="0 0 48 48"><g><g><path d="M24 21.6a3.595 3.595 0 0 1-3.6-3.6c0-1.992 1.608-3.6 3.6-3.6s3.6 1.608 3.6 3.6-1.608 3.6-3.6 3.6zm0-12a8.379 8.379 0 0 0-8.4 8.4c0 4.656 3.744 8.4 8.4 8.4 4.656 0 8.4-3.744 8.4-8.4 0-4.656-3.744-8.4-8.4-8.4zm15.264 25.992zM24 30c-3.504 0-11.832 1.416-15.264 5.592C6.288 32.376 4.8 28.368 4.8 24 4.8 13.416 13.416 4.8 24 4.8S43.2 13.416 43.2 24c0 4.368-1.488 8.376-3.936 11.592C35.832 31.416 27.504 30 24 30zm-11.832 9.072C13.2 36.912 19.488 34.8 24 34.8c4.512 0 10.824 2.112 11.832 4.272A18.943 18.943 0 0 1 24 43.2a18.943 18.943 0 0 1-11.832-4.128zM24 0C10.752 0 0 10.752 0 24s10.752 24 24 24 24-10.752 24-24S37.248 0 24 0z"/></g></g></svg>